<svg id="Layer_1" xmlns="http://www.w3.org/2000/svg" viewBox="0 0 1190.55 125.22">
<defs>
<style>.cls-1{fill:#231f20;stroke-width:0px;}</style>
</defs>
<path class="cls-1" d="m19.5,104.25V21.07h7.76v83.18h-7.76Z"/>
<path class="cls-1" d="m88.26,57.11c-6.1-9.42-11.51-19.68-15.8-28.42l-3.33.14c.83,11.51,1.11,27.45,1.11,40.48v34.93h-7.63V21.07h11.92l26.62,41.73c7.49,11.78,14,23.71,18.44,32.44l2.91-.14c-.69-10.81-1.24-26.2-1.24-39.09V21.07h7.48v83.18h-10.4l-30.08-47.14Z"/>
<path class="cls-1" d="m189.74,57.11c-6.1-9.42-11.51-19.68-15.81-28.42l-3.32.14c.83,11.51,1.1,27.45,1.1,40.48v34.93h-7.62V21.07h11.92l26.62,41.73c7.49,11.78,14,23.71,18.44,32.44l2.91-.14c-.69-10.81-1.25-26.2-1.25-39.09V21.07h7.49v83.18h-10.4l-30.08-47.14Z"/>
<path class="cls-1" d="m259.87,62.52c0-25.23,14.56-42.98,40.62-42.98s40.75,17.74,40.75,42.98-14.42,43.25-40.75,43.25-40.62-18.02-40.62-43.25Zm73.61,0c0-21.21-10.81-35.91-32.99-35.91s-32.86,14.69-32.86,35.91,10.53,36.18,32.86,36.18,32.99-14.97,32.99-36.18Z"/>
<path class="cls-1" d="m393.79,104.25l-34.38-83.18h8.18l17.46,43.25c4.3,10.53,9.15,23.84,11.92,32.86h3.19c3.19-9.29,8.04-22.32,12.33-32.86l17.33-43.25h8.04l-34.38,83.18h-9.71Z"/>
<path class="cls-1" d="m509.13,77.63h-40.48l-10.67,26.62h-8.18l34.38-83.18h9.71l34.38,83.18h-8.32l-10.81-26.62Zm-37.98-6.38h35.49l-4.16-10.26c-4.3-10.54-9.01-23.98-11.92-32.86h-3.05c-3.19,9.29-7.9,22.18-12.2,32.86l-4.16,10.26Z"/>
<path class="cls-1" d="m535.47,21.07h65.43v7.21h-28.84v75.97h-7.76V28.27h-28.84v-7.21Z"/>
<path class="cls-1" d="m627.8,21.07h54.48v7.07h-46.72v30.09h41.45v7.07h-41.45v31.89h46.58v7.07h-54.34V21.07Z"/>
<path class="cls-1" d="m842.85,97.18h41.03v7.07h-48.8V21.07h7.76v76.11Z"/>
<path class="cls-1" d="m961.24,77.63h-40.48l-10.67,26.62h-8.18l34.38-83.18h9.71l34.38,83.18h-8.32l-10.81-26.62Zm-37.98-6.38h35.49l-4.16-10.26c-4.3-10.54-9.01-23.98-11.92-32.86h-3.05c-3.19,9.29-7.9,22.18-12.2,32.86l-4.16,10.26Z"/>
<path class="cls-1" d="m1005.32,21.07h32.02c17.61,0,25.79,7.35,25.79,21.21,0,10.53-5.96,16.91-15.67,19.27v1.11c13.17,1.66,20.24,7.62,20.24,19.27,0,12.89-8.04,22.32-27.73,22.32h-34.66V21.07Zm7.76,6.79v31.33h23.98c10.4,0,18.44-4.3,18.44-16.22,0-10.12-5.13-15.11-17.46-15.11h-24.96Zm0,37.84v31.89h26.76c13.86,0,20.1-6.65,20.1-15.94,0-9.98-5.55-15.94-21.07-15.94h-25.78Z"/>
<path class="cls-1" d="m1090.72,77.35l7.35-1.67c2.49,14.97,10.81,23.15,27.86,23.15,15.94,0,22.46-6.38,22.46-15.94s-6.24-14.14-23.57-17.33c-22.6-4.16-29.94-12.34-29.94-24.12,0-13.03,9.71-21.91,28.56-21.91s26.89,9.71,30.5,24.82l-7.63,1.66c-3.05-12.89-8.32-19.68-23.15-19.68-14,0-20.66,5.82-20.66,14.83,0,8.32,4.99,13.72,24.53,17.6,22.88,4.44,29.12,12.34,29.12,23.57,0,13.87-8.87,23.43-30.23,23.43-21.9-.14-32.71-11.09-35.21-28.42Z"/>
<polygon class="cls-1" points="797.87 29.76 774.21 63.24 759.73 62.42 797.87 29.76"/>
<polygon class="cls-1" points="774.21 63.24 794.85 97.48 759.73 62.42 774.21 63.24"/>
<polygon class="cls-1" points="757.99 62.42 722.88 97.48 743.52 63.24 757.99 62.42"/>
<polygon class="cls-1" points="757.99 62.42 743.52 63.24 719.86 29.76 757.99 62.42"/>
</svg>